<?xml version="1.0" encoding="UTF-8"?>
<svg xmlns="http://www.w3.org/2000/svg" width="356" height="733" viewBox="0 0 356 733">
  <title>Lingo Stream Extension Layered Export (AE-Compatible)</title>
  <desc>After Effects compatible layered SVG generated from layer bounds.</desc>
  <defs>
    <linearGradient id="bg-gradient" x1="0" y1="0" x2="356" y2="733" gradientUnits="userSpaceOnUse">
      <stop offset="0%" stop-color="#f6fff7" />
      <stop offset="52%" stop-color="#f2fbf3" />
      <stop offset="100%" stop-color="#e8f2ea" />
    </linearGradient>
    <linearGradient id="accent-gradient" x1="0%" y1="0%" x2="100%" y2="100%">
      <stop offset="0%" stop-color="#4aaa6a" />
      <stop offset="100%" stop-color="#2b7d45" />
    </linearGradient>
    <radialGradient id="glow-a-gradient" cx="42%" cy="40%" r="62%">
      <stop offset="0%" stop-color="#3e9b5f" stop-opacity="0.34" />
      <stop offset="100%" stop-color="#3e9b5f" stop-opacity="0" />
    </radialGradient>
    <radialGradient id="glow-b-gradient" cx="58%" cy="52%" r="64%">
      <stop offset="0%" stop-color="#2b7d45" stop-opacity="0.3" />
      <stop offset="100%" stop-color="#2b7d45" stop-opacity="0" />
    </radialGradient>
  </defs>
  <g id="layer-00-background">
    <rect x="0" y="0" width="356" height="733" rx="18" ry="18" fill="url(#bg-gradient)" fill-opacity="1" stroke="none" stroke-width="0" />
  </g>
  <g id="layer-01-top-card-is-visible">
    <rect x="10" y="10" width="336" height="65" rx="11.7" ry="11.7" fill="#ffffff" fill-opacity="0.94" stroke="#cfe6d5" stroke-width="2.2" />
  </g>
  <g id="layer-02-field-span-2">
    <rect x="21" y="102" width="314" height="72.5" rx="13.05" ry="13.05" fill="#f9fdf9" fill-opacity="0.95" stroke="#d5e9da" stroke-width="2.2" />
  </g>
  <g id="layer-03-field">
    <rect x="21" y="182.5" width="314" height="51" rx="9.18" ry="9.18" fill="#f9fdf9" fill-opacity="0.95" stroke="#d5e9da" stroke-width="2.04" />
  </g>
  <g id="layer-04-field-02">
    <rect x="21" y="241.5" width="314" height="31" rx="6" ry="6" fill="#f9fdf9" fill-opacity="0.95" stroke="#d5e9da" stroke-width="1.24" />
  </g>
  <g id="layer-05-field-inline-switch-row">
    <rect x="21" y="280.5" width="314" height="40" rx="7.2" ry="7.2" fill="#f9fdf9" fill-opacity="0.95" stroke="#d5e9da" stroke-width="1.6" />
  </g>
  <g id="layer-06-field-inline-switch-row-02">
    <rect x="21" y="328.5" width="314" height="40" rx="7.2" ry="7.2" fill="#f9fdf9" fill-opacity="0.95" stroke="#d5e9da" stroke-width="1.6" />
  </g>
  <g id="layer-07-hint-span-2">
    <rect x="21" y="376.5" width="314" height="14.5" rx="4" ry="4" fill="#f4faf5" fill-opacity="0.96" stroke="#d5e8d8" stroke-width="0.8" />
  </g>
  <g id="layer-08-button-row">
    <rect x="21" y="400" width="314" height="33" rx="6" ry="6" fill="url(#accent-gradient)" fill-opacity="0.96" stroke="#2b7d45" stroke-width="1.32" />
  </g>
  <g id="layer-09-savestatus">
    <rect x="21" y="445" width="314" height="16" rx="4" ry="4" fill="#f4faf5" fill-opacity="0.96" stroke="#d5e8d8" stroke-width="0.8" />
  </g>
  <g id="layer-10-runtimestatus">
    <rect x="21" y="473" width="314" height="16" rx="4" ry="4" fill="#f4faf5" fill-opacity="0.96" stroke="#d5e8d8" stroke-width="0.8" />
  </g>
  <g id="layer-11-health-panel-span-2">
    <rect x="21" y="497" width="314" height="119" rx="18" ry="18" fill="#ffffff" fill-opacity="0.94" stroke="#cfe6d5" stroke-width="2.2" />
  </g>
  <g id="layer-12-health-panel-span-2-02">
    <rect x="21" y="624" width="314" height="49" rx="8.82" ry="8.82" fill="#ffffff" fill-opacity="0.94" stroke="#cfe6d5" stroke-width="1.96" />
  </g>
  <g id="layer-13-span-2">
    <rect x="21" y="681" width="314" height="31" rx="6" ry="6" fill="#f9fdf9" fill-opacity="0.95" stroke="#d5e9da" stroke-width="1.24" />
  </g>
  <g id="layer-14-brand-logo">
    <rect x="22.5" y="29" width="27" height="27" rx="5.94" ry="5.94" fill="#005540" />
    <path d="M 32.76 35.21 V 49.79 H 40.86" fill="none" stroke="#ffffff" stroke-width="4.32" stroke-linecap="round" stroke-linejoin="round" />
  </g>
  <g id="layer-15-quizbutton">
    <rect x="265.42" y="29.5" width="69.58" height="26" rx="6" ry="6" fill="url(#accent-gradient)" fill-opacity="0.96" stroke="#2b7d45" stroke-width="1.04" />
  </g>
  <g id="layer-16-savebutton">
    <rect x="21" y="400" width="152.5" height="33" rx="6" ry="6" fill="url(#accent-gradient)" fill-opacity="0.96" stroke="#2b7d45" stroke-width="1.32" />
  </g>
  <g id="layer-17-attachbutton">
    <rect x="180.5" y="400" width="154.5" height="33" rx="6" ry="6" fill="url(#accent-gradient)" fill-opacity="0.96" stroke="#2b7d45" stroke-width="1.32" />
  </g>
  <g id="layer-18-recheckhealthbutton">
    <rect x="31" y="573" width="294" height="33" rx="6" ry="6" fill="url(#accent-gradient)" fill-opacity="0.96" stroke="#2b7d45" stroke-width="1.32" />
  </g>
  <g id="layer-19-vocabularyclearfiltersbutton">
    <rect x="31" y="847" width="294" height="33" rx="6" ry="6" fill="url(#accent-gradient)" fill-opacity="0.96" stroke="#2b7d45" stroke-width="1.32" />
  </g>
  <g id="layer-20-importvocabularybutton">
    <rect x="31" y="898" width="143.5" height="33" rx="6" ry="6" fill="url(#accent-gradient)" fill-opacity="0.96" stroke="#2b7d45" stroke-width="1.32" />
  </g>
  <g id="layer-21-exportvocabularybutton">
    <rect x="181.5" y="898" width="143.5" height="33" rx="6" ry="6" fill="url(#accent-gradient)" fill-opacity="0.96" stroke="#2b7d45" stroke-width="1.32" />
  </g>
  <g id="layer-22-clearvocabularybutton">
    <rect x="31" y="932" width="294" height="33" rx="6" ry="6" fill="url(#accent-gradient)" fill-opacity="0.96" stroke="#2b7d45" stroke-width="1.32" />
  </g>
  <g id="layer-23-clearlogsbutton">
    <rect x="31" y="745" width="294" height="33" rx="6" ry="6" fill="url(#accent-gradient)" fill-opacity="0.96" stroke="#2b7d45" stroke-width="1.32" />
  </g>
  <g id="layer-24-object-svganimatedstring">
    <circle cx="281.92" cy="42.5" r="5.59" fill="#f4fbf5" stroke="#2b7d45" stroke-width="1.17" />
    <path d="M 281.92 40.15 V 44.85 M 279.57 42.5 H 284.27" stroke="#2b7d45" stroke-width="1.56" stroke-linecap="round" />
  </g>
  <g id="layer-25-object-svganimatedstring-02">
    <circle cx="27.5" cy="108.5" r="5.59" fill="#f4fbf5" stroke="#2b7d45" stroke-width="1.17" />
    <path d="M 27.5 106.15 V 110.85 M 25.15 108.5 H 29.85" stroke="#2b7d45" stroke-width="1.56" stroke-linecap="round" />
  </g>
  <g id="layer-26-object-svganimatedstring-03">
    <circle cx="27.5" cy="189" r="5.59" fill="#f4fbf5" stroke="#2b7d45" stroke-width="1.17" />
    <path d="M 27.5 186.65 V 191.35 M 25.15 189 H 29.85" stroke="#2b7d45" stroke-width="1.56" stroke-linecap="round" />
  </g>
  <g id="layer-27-object-svganimatedstring-04">
    <circle cx="27.5" cy="248" r="5.59" fill="#f4fbf5" stroke="#2b7d45" stroke-width="1.17" />
    <path d="M 27.5 245.65 V 250.35 M 25.15 248 H 29.85" stroke="#2b7d45" stroke-width="1.56" stroke-linecap="round" />
  </g>
  <g id="layer-28-object-svganimatedstring-05">
    <circle cx="36.5" cy="300.5" r="5.59" fill="#f4fbf5" stroke="#2b7d45" stroke-width="1.17" />
    <path d="M 36.5 298.15 V 302.85 M 34.15 300.5 H 38.85" stroke="#2b7d45" stroke-width="1.56" stroke-linecap="round" />
  </g>
  <g id="layer-29-object-svganimatedstring-06">
    <circle cx="36.5" cy="348.5" r="5.59" fill="#f4fbf5" stroke="#2b7d45" stroke-width="1.17" />
    <path d="M 36.5 346.15 V 350.85 M 34.15 348.5 H 38.85" stroke="#2b7d45" stroke-width="1.56" stroke-linecap="round" />
  </g>
  <g id="layer-30-object-svganimatedstring-07">
    <circle cx="79.59" cy="416.5" r="5.59" fill="#f4fbf5" stroke="#2b7d45" stroke-width="1.17" />
    <path d="M 79.59 414.15 V 418.85 M 77.24 416.5 H 81.94" stroke="#2b7d45" stroke-width="1.56" stroke-linecap="round" />
  </g>
  <g id="layer-31-object-svganimatedstring-08">
    <circle cx="239.86" cy="416.5" r="5.59" fill="#f4fbf5" stroke="#2b7d45" stroke-width="1.17" />
    <path d="M 239.86 414.15 V 418.85 M 237.51 416.5 H 242.21" stroke="#2b7d45" stroke-width="1.56" stroke-linecap="round" />
  </g>
  <g id="layer-32-object-svganimatedstring-09">
    <circle cx="37.5" cy="512.5" r="5.59" fill="#f4fbf5" stroke="#2b7d45" stroke-width="1.17" />
    <path d="M 37.5 510.15 V 514.85 M 35.15 512.5 H 39.85" stroke="#2b7d45" stroke-width="1.56" stroke-linecap="round" />
  </g>
  <g id="layer-33-object-svganimatedstring-10">
    <circle cx="148.64" cy="589.5" r="5.59" fill="#f4fbf5" stroke="#2b7d45" stroke-width="1.17" />
    <path d="M 148.64 587.15 V 591.85 M 146.29 589.5 H 150.99" stroke="#2b7d45" stroke-width="1.56" stroke-linecap="round" />
  </g>
  <g id="layer-34-object-svganimatedstring-11">
    <circle cx="37.5" cy="639.5" r="5.59" fill="#f4fbf5" stroke="#2b7d45" stroke-width="1.17" />
    <path d="M 37.5 637.15 V 641.85 M 35.15 639.5 H 39.85" stroke="#2b7d45" stroke-width="1.56" stroke-linecap="round" />
  </g>
  <g id="layer-35-object-svganimatedstring-12">
    <circle cx="158.83" cy="863.5" r="5.59" fill="#f4fbf5" stroke="#2b7d45" stroke-width="1.17" />
    <path d="M 158.83 861.15 V 865.85 M 156.48 863.5 H 161.18" stroke="#2b7d45" stroke-width="1.56" stroke-linecap="round" />
  </g>
  <g id="layer-36-object-svganimatedstring-13">
    <circle cx="79.28" cy="914.5" r="5.59" fill="#f4fbf5" stroke="#2b7d45" stroke-width="1.17" />
    <path d="M 79.28 912.15 V 916.85 M 76.93 914.5 H 81.63" stroke="#2b7d45" stroke-width="1.56" stroke-linecap="round" />
  </g>
  <g id="layer-37-object-svganimatedstring-14">
    <circle cx="229.78" cy="914.5" r="5.59" fill="#f4fbf5" stroke="#2b7d45" stroke-width="1.17" />
    <path d="M 229.78 912.15 V 916.85 M 227.43 914.5 H 232.13" stroke="#2b7d45" stroke-width="1.56" stroke-linecap="round" />
  </g>
  <g id="layer-38-object-svganimatedstring-15">
    <circle cx="157.44" cy="948.5" r="5.59" fill="#f4fbf5" stroke="#2b7d45" stroke-width="1.17" />
    <path d="M 157.44 946.15 V 950.85 M 155.09 948.5 H 159.79" stroke="#2b7d45" stroke-width="1.56" stroke-linecap="round" />
  </g>
  <g id="layer-39-object-svganimatedstring-16">
    <circle cx="37.5" cy="696.5" r="5.59" fill="#f4fbf5" stroke="#2b7d45" stroke-width="1.17" />
    <path d="M 37.5 694.15 V 698.85 M 35.15 696.5 H 39.85" stroke="#2b7d45" stroke-width="1.56" stroke-linecap="round" />
  </g>
  <g id="layer-40-object-svganimatedstring-17">
    <circle cx="142.36" cy="761.5" r="5.59" fill="#f4fbf5" stroke="#2b7d45" stroke-width="1.17" />
    <path d="M 142.36 759.15 V 763.85 M 140.01 761.5 H 144.71" stroke="#2b7d45" stroke-width="1.56" stroke-linecap="round" />
  </g>
</svg>
